<svg width="262" height="100" viewBox="0 0 262 100" fill="none" xmlns="http://www.w3.org/2000/svg">
<g clip-path="url(#clip0_4418_30)">
<path d="M61.3636 150.989C51.1364 150.989 42.4006 148.053 35.1562 142.182C27.9593 136.263 22.4195 127.717 18.5369 116.543C14.7017 105.368 12.7841 91.9451 12.7841 76.2727C12.7841 60.6477 14.7017 47.2718 18.5369 36.1449C22.4195 24.9706 27.983 16.4242 35.2273 10.5057C42.5189 4.53977 51.2311 1.55681 61.3636 1.55681C71.4962 1.55681 80.1847 4.53977 87.429 10.5057C94.7206 16.4242 100.284 24.9706 104.119 36.1449C108.002 47.2718 109.943 60.6477 109.943 76.2727C109.943 91.9451 108.002 105.368 104.119 116.543C100.284 127.717 94.7443 136.263 87.5 142.182C80.303 148.053 71.5909 150.989 61.3636 150.989ZM61.3636 139.057C72.5852 139.057 81.3447 133.588 87.642 122.651C93.9394 111.666 97.0881 96.2064 97.0881 76.2727C97.0881 63.0152 95.6439 51.6989 92.7557 42.3239C89.9148 32.9015 85.8191 25.7045 80.4688 20.733C75.1657 15.7614 68.7973 13.2756 61.3636 13.2756C50.2367 13.2756 41.5009 18.8153 35.1562 29.8949C28.8116 40.9271 25.6392 56.3864 25.6392 76.2727C25.6392 89.5303 27.0597 100.847 29.9006 110.222C32.7888 119.597 36.8845 126.746 42.1875 131.67C47.5379 136.595 53.9299 139.057 61.3636 139.057ZM138.849 149V139.27L186.364 85.8608C192.566 78.8532 197.562 72.8636 201.349 67.892C205.137 62.9205 207.884 58.3276 209.588 54.1136C211.34 49.8996 212.216 45.5199 212.216 40.9744C212.216 35.4347 210.914 30.6051 208.31 26.4858C205.753 22.3191 202.225 19.0758 197.727 16.7557C193.229 14.4356 188.163 13.2756 182.528 13.2756C176.563 13.2756 171.33 14.554 166.832 17.1108C162.382 19.6676 158.925 23.1714 156.463 27.6222C154.001 32.0729 152.77 37.1865 152.77 42.9631H140.057C140.057 34.9138 141.903 27.7879 145.597 21.5852C149.337 15.3352 154.427 10.4347 160.866 6.88351C167.353 3.33238 174.692 1.55681 182.884 1.55681C190.98 1.55681 198.177 3.30871 204.474 6.8125C210.772 10.2689 215.72 14.9801 219.318 20.946C222.917 26.9119 224.716 33.5881 224.716 40.9744C224.716 46.3248 223.769 51.5095 221.875 56.5284C220.028 61.5473 216.832 67.1345 212.287 73.2898C207.741 79.4451 201.444 86.9735 193.395 95.875L157.315 136.145V137.068H229.261V149H138.849Z" fill="url(#paint0_linear_4418_30)"/>
</g>
<defs>
<linearGradient id="paint0_linear_4418_30" x1="22.1317" y1="145.267" x2="233.871" y2="18.1477" gradientUnits="userSpaceOnUse">
<stop offset="0.118519" stop-color="#D4151C"/>
<stop offset="1" stop-color="#D35400"/>
</linearGradient>
<clipPath id="clip0_4418_30">
<rect width="262" height="100" fill="white"/>
</clipPath>
</defs>
</svg>
