<svg width="262" height="100" viewBox="0 0 262 100" fill="none" xmlns="http://www.w3.org/2000/svg">
<g clip-path="url(#clip0_4418_25)">
<path d="M61.3636 150.989C51.1364 150.989 42.4006 148.053 35.1562 142.182C27.9593 136.263 22.4195 127.717 18.5369 116.543C14.7017 105.368 12.7841 91.9451 12.7841 76.2727C12.7841 60.6477 14.7017 47.2718 18.5369 36.1449C22.4195 24.9706 27.983 16.4242 35.2273 10.5057C42.5189 4.53977 51.2311 1.55681 61.3636 1.55681C71.4962 1.55681 80.1847 4.53977 87.429 10.5057C94.7206 16.4242 100.284 24.9706 104.119 36.1449C108.002 47.2718 109.943 60.6477 109.943 76.2727C109.943 91.9451 108.002 105.368 104.119 116.543C100.284 127.717 94.7443 136.263 87.5 142.182C80.303 148.053 71.5909 150.989 61.3636 150.989ZM61.3636 139.057C72.5852 139.057 81.3447 133.588 87.642 122.651C93.9394 111.666 97.0881 96.2064 97.0881 76.2727C97.0881 63.0152 95.6439 51.6989 92.7557 42.3239C89.9148 32.9015 85.8191 25.7045 80.4688 20.733C75.1657 15.7614 68.7973 13.2756 61.3636 13.2756C50.2367 13.2756 41.5009 18.8153 35.1562 29.8949C28.8116 40.9271 25.6392 56.3864 25.6392 76.2727C25.6392 89.5303 27.0597 100.847 29.9006 110.222C32.7888 119.597 36.8845 126.746 42.1875 131.67C47.5379 136.595 53.9299 139.057 61.3636 139.057ZM186.08 150.989C177.131 150.989 169.129 149.379 162.074 146.159C155.019 142.892 149.432 138.37 145.312 132.594C141.193 126.817 139.015 120.165 138.778 112.636H152.202C152.438 117.939 154.072 122.58 157.102 126.557C160.133 130.487 164.157 133.564 169.176 135.79C174.195 137.968 179.782 139.057 185.938 139.057C192.661 139.057 198.58 137.802 203.693 135.293C208.854 132.783 212.879 129.35 215.767 124.994C218.703 120.591 220.17 115.619 220.17 110.08C220.17 104.208 218.679 99.0237 215.696 94.5256C212.713 90.0275 208.428 86.5237 202.841 84.0142C197.301 81.5047 190.672 80.25 182.955 80.25H174.432V68.3182H182.955C189.252 68.3182 194.815 67.1818 199.645 64.9091C204.522 62.589 208.357 59.3456 211.151 55.179C213.944 51.0123 215.341 46.1117 215.341 40.4773C215.341 35.1269 214.134 30.4157 211.719 26.3438C209.304 22.2718 205.895 19.0758 201.491 16.7557C197.135 14.4356 192.045 13.2756 186.222 13.2756C180.587 13.2756 175.426 14.3646 170.739 16.5426C166.051 18.7206 162.263 21.7983 159.375 25.7756C156.534 29.7528 155.019 34.464 154.83 39.9091H141.974C142.164 32.3333 144.247 25.6809 148.224 19.9517C152.249 14.1752 157.576 9.67708 164.205 6.45739C170.881 3.19034 178.267 1.55681 186.364 1.55681C194.934 1.55681 202.344 3.30871 208.594 6.8125C214.844 10.3163 219.673 14.9801 223.082 20.804C226.539 26.5805 228.267 32.9489 228.267 39.9091C228.267 48.1951 226.018 55.2973 221.52 61.2159C217.022 67.0871 210.961 71.1591 203.338 73.4318V74.3551C212.618 76.2017 219.91 80.321 225.213 86.7131C230.563 93.0578 233.239 100.847 233.239 110.08C233.239 117.845 231.203 124.829 227.131 131.031C223.059 137.187 217.472 142.063 210.369 145.662C203.314 149.213 195.218 150.989 186.08 150.989Z" fill="url(#paint0_linear_4418_25)"/>
</g>
<defs>
<linearGradient id="paint0_linear_4418_25" x1="22.493" y1="145.267" x2="235.829" y2="15.0983" gradientUnits="userSpaceOnUse">
<stop offset="0.118519" stop-color="#D4151C"/>
<stop offset="1" stop-color="#D35400"/>
</linearGradient>
<clipPath id="clip0_4418_25">
<rect width="262" height="100" fill="white"/>
</clipPath>
</defs>
</svg>
