<svg width="30" height="30" viewBox="0 0 30 30" fill="none" xmlns="http://www.w3.org/2000/svg">
<path d="M15 10V15M25 12.7063C25 20.9166 18.7899 24.5976 16.1572 25.7892L16.1539 25.7907C15.877 25.916 15.7382 25.9788 15.4236 26.0329C15.2243 26.0671 14.7769 26.0671 14.5777 26.0329C14.2618 25.9786 14.1215 25.9156 13.8424 25.7892C11.2097 24.5976 5 20.9166 5 12.7063V7.75024C5 6.35011 5 5.64953 5.27248 5.11475C5.51217 4.64434 5.89434 4.26217 6.36475 4.02248C6.89953 3.75 7.60011 3.75 9.00024 3.75H21.0002C22.4004 3.75 23.0995 3.75 23.6342 4.02248C24.1046 4.26217 24.4881 4.64434 24.7278 5.11475C25 5.649 25 6.34874 25 7.74614V12.7063ZM15.0623 18.75V18.875L14.9377 18.8752V18.75H15.0623Z" stroke="url(#paint0_linear_4418_33)" stroke-width="2.5" stroke-linecap="round" stroke-linejoin="round"/>
<defs>
<linearGradient id="paint0_linear_4418_33" x1="6.80667" y1="21.2896" x2="25.1398" y2="11.5429" gradientUnits="userSpaceOnUse">
<stop offset="0.118519" stop-color="#D4151C"/>
<stop offset="1" stop-color="#D35400"/>
</linearGradient>
</defs>
</svg>
