<svg width="30" height="30" viewBox="0 0 30 30" fill="none" xmlns="http://www.w3.org/2000/svg">
<path d="M6.99951 24.9004L8.90446 23.3765L8.91847 23.3657C9.31561 23.048 9.51601 22.8877 9.7396 22.7734C9.9402 22.671 10.1541 22.5963 10.3748 22.551C10.6235 22.5 10.8825 22.5 11.4026 22.5H22.2539C23.6513 22.5 24.3508 22.5 24.885 22.2278C25.3554 21.9881 25.7381 21.6053 25.9778 21.1349C26.25 20.6006 26.25 19.9019 26.25 18.5045V8.99614C26.25 7.59874 26.25 6.899 25.9778 6.36475C25.7381 5.89434 25.3547 5.51217 24.8842 5.27248C24.3495 5 23.6504 5 22.2502 5H7.75024C6.35011 5 5.64953 5 5.11475 5.27248C4.64434 5.51217 4.26217 5.89434 4.02248 6.36475C3.75 6.89953 3.75 7.60011 3.75 9.00024V23.339C3.75 24.6711 3.75 25.337 4.02307 25.6791C4.26056 25.9767 4.62054 26.1497 5.00122 26.1493C5.43894 26.1489 5.9593 25.7326 6.99951 24.9004Z" stroke="url(#paint0_linear_4418_440)" stroke-width="2.5" stroke-linecap="round" stroke-linejoin="round"/>
<defs>
<linearGradient id="paint0_linear_4418_440" x1="5.7825" y1="21.6282" x2="24.7053" y2="9.69023" gradientUnits="userSpaceOnUse">
<stop offset="0.118519" stop-color="#D4151C"/>
<stop offset="1" stop-color="#D35400"/>
</linearGradient>
</defs>
</svg>
