<svg width="134" height="55" viewBox="0 0 134 55" fill="none" xmlns="http://www.w3.org/2000/svg">
<path fill-rule="evenodd" clip-rule="evenodd" d="M18.293 6.51147L42.1092 6.51147L48.3965 17.3534H36.247L30.4322 27.5L18.293 6.51147ZM48.3965 17.3534L60.5861 38.3735L36.7211 38.3735L48.3965 17.3534ZM0 16.6266H23.8649L12.1896 37.6467L0 16.6266ZM12.1896 37.6467H24.3391L30.1539 27.5002L42.2931 48.4887H18.4769L12.1896 37.6467Z" fill="url(#paint0_linear_14_36)"/>
<path d="M90.0163 7.95467V22.5001H87.3601L81.032 13.3453H80.9254V22.5001H77.8501V7.95467H80.549L86.8274 17.1024H86.9553V7.95467H90.0163ZM95.6112 22.7061C94.9151 22.7061 94.2949 22.5853 93.7504 22.3439C93.2058 22.0977 92.775 21.7354 92.4577 21.2572C92.1452 20.7743 91.989 20.1729 91.989 19.4532C91.989 18.8472 92.1003 18.3382 92.3228 17.9263C92.5453 17.5143 92.8484 17.1829 93.2319 16.9319C93.6154 16.681 94.051 16.4916 94.5387 16.3638C95.0311 16.2359 95.5472 16.146 96.087 16.0939C96.7215 16.0276 97.2328 15.966 97.6211 15.9092C98.0094 15.8477 98.2911 15.7577 98.4663 15.6393C98.6415 15.521 98.729 15.3458 98.729 15.1138V15.0711C98.729 14.6213 98.587 14.2733 98.3029 14.0271C98.0236 13.7809 97.6258 13.6578 97.1097 13.6578C96.5652 13.6578 96.132 13.7785 95.81 14.02C95.488 14.2568 95.275 14.555 95.1708 14.9149L92.3725 14.6876C92.5146 14.0247 92.7939 13.4518 93.2106 12.9689C93.6272 12.4812 94.1647 12.1071 94.8228 11.8467C95.4857 11.5816 96.2527 11.449 97.1239 11.449C97.73 11.449 98.31 11.52 98.864 11.6621C99.4227 11.8041 99.9175 12.0243 100.348 12.3226C100.784 12.6209 101.127 13.0044 101.378 13.4731C101.629 13.9371 101.755 14.4935 101.755 15.1422V22.5001H98.8853V20.9873H98.8001C98.6249 21.3282 98.3905 21.6289 98.0969 21.8893C97.8034 22.145 97.4506 22.3462 97.0387 22.493C96.6268 22.6351 96.1509 22.7061 95.6112 22.7061ZM96.4776 20.618C96.9227 20.618 97.3157 20.5304 97.6566 20.3552C97.9975 20.1753 98.265 19.9338 98.4592 19.6308C98.6533 19.3278 98.7504 18.9845 98.7504 18.601V17.4433C98.6557 17.5049 98.5255 17.5617 98.3597 17.6138C98.1987 17.6611 98.0165 17.7061 97.8129 17.7487C97.6093 17.7866 97.4057 17.8221 97.2021 17.8552C96.9985 17.8836 96.8138 17.9097 96.6481 17.9334C96.293 17.9854 95.9828 18.0683 95.7177 18.1819C95.4525 18.2956 95.2466 18.4495 95.0998 18.6436C94.953 18.833 94.8796 19.0697 94.8796 19.3538C94.8796 19.7657 95.0288 20.0806 95.3271 20.2984C95.6301 20.5115 96.0136 20.618 96.4776 20.618ZM113.882 11.591L110.068 22.5001H106.659L102.845 11.591H106.041L108.306 19.3964H108.42L110.679 11.591H113.882ZM115.43 22.5001V11.591H118.456V22.5001H115.43ZM116.95 10.1848C116.5 10.1848 116.114 10.0356 115.792 9.73734C115.475 9.43431 115.316 9.07209 115.316 8.65069C115.316 8.23402 115.475 7.87654 115.792 7.57825C116.114 7.27522 116.5 7.1237 116.95 7.1237C117.4 7.1237 117.783 7.27522 118.1 7.57825C118.422 7.87654 118.583 8.23402 118.583 8.65069C118.583 9.07209 118.422 9.43431 118.1 9.73734C117.783 10.0356 117.4 10.1848 116.95 10.1848ZM129.956 14.7018L127.186 14.8723C127.139 14.6355 127.037 14.4225 126.881 14.2331C126.724 14.0389 126.518 13.8851 126.263 13.7714C126.012 13.6531 125.711 13.5939 125.361 13.5939C124.892 13.5939 124.497 13.6933 124.175 13.8922C123.853 14.0863 123.692 14.3467 123.692 14.6734C123.692 14.9338 123.796 15.154 124.004 15.3339C124.213 15.5139 124.57 15.6583 125.077 15.7672L127.051 16.1649C128.112 16.3827 128.902 16.7331 129.423 17.216C129.944 17.699 130.205 18.3335 130.205 19.1194C130.205 19.8344 129.994 20.4618 129.572 21.0015C129.156 21.5413 128.583 21.9627 127.854 22.2657C127.129 22.564 126.294 22.7132 125.347 22.7132C123.902 22.7132 122.752 22.4125 121.895 21.8112C121.043 21.2051 120.543 20.3813 120.396 19.3396L123.372 19.1834C123.462 19.6237 123.68 19.9599 124.026 20.1919C124.371 20.4192 124.814 20.5328 125.354 20.5328C125.884 20.5328 126.31 20.431 126.632 20.2274C126.959 20.0191 127.125 19.7515 127.129 19.4248C127.125 19.1502 127.009 18.9253 126.781 18.7501C126.554 18.5702 126.204 18.4329 125.73 18.3382L123.841 17.9618C122.776 17.7487 121.982 17.3794 121.462 16.8538C120.946 16.3282 120.688 15.6583 120.688 14.8439C120.688 14.1431 120.877 13.5394 121.256 13.0328C121.639 12.5262 122.177 12.1355 122.868 11.8609C123.564 11.5863 124.378 11.449 125.311 11.449C126.689 11.449 127.773 11.7402 128.564 12.3226C129.359 12.905 129.823 13.698 129.956 14.7018ZM80.3572 46.5001H77.0618L82.0831 31.9547H86.0462L91.0604 46.5001H87.7649L84.1214 35.2785H84.0078L80.3572 46.5001ZM80.1513 40.7828H87.9354V43.1834H80.1513V40.7828ZM101.577 38.7018L98.8072 38.8723C98.7598 38.6355 98.658 38.4225 98.5018 38.2331C98.3455 38.0389 98.1396 37.8851 97.8839 37.7714C97.6329 37.6531 97.3323 37.5939 96.9819 37.5939C96.5131 37.5939 96.1178 37.6933 95.7958 37.8922C95.4738 38.0863 95.3129 38.3467 95.3129 38.6734C95.3129 38.9338 95.417 39.154 95.6254 39.3339C95.8337 39.5139 96.1912 39.6583 96.6978 39.7672L98.6722 40.1649C99.7328 40.3827 100.524 40.7331 101.044 41.216C101.565 41.699 101.826 42.3335 101.826 43.1194C101.826 43.8344 101.615 44.4618 101.194 45.0015C100.777 45.5413 100.204 45.9627 99.4748 46.2657C98.7504 46.564 97.9147 46.7132 96.9677 46.7132C95.5236 46.7132 94.373 46.4125 93.516 45.8112C92.6637 45.2051 92.1642 44.3813 92.0174 43.3396L94.9933 43.1834C95.0832 43.6237 95.301 43.9599 95.6467 44.1919C95.9923 44.4192 96.435 44.5328 96.9748 44.5328C97.5051 44.5328 97.9312 44.431 98.2532 44.2274C98.5799 44.0191 98.7456 43.7515 98.7504 43.4248C98.7456 43.1502 98.6296 42.9253 98.4023 42.7501C98.1751 42.5702 97.8247 42.4329 97.3512 42.3382L95.462 41.9618C94.3967 41.7487 93.6036 41.3794 93.0827 40.8538C92.5666 40.3282 92.3086 39.6583 92.3086 38.8439C92.3086 38.1431 92.498 37.5394 92.8768 37.0328C93.2603 36.5262 93.7977 36.1355 94.489 35.8609C95.185 35.5863 95.9994 35.449 96.9322 35.449C98.31 35.449 99.3943 35.7402 100.185 36.3226C100.98 36.905 101.444 37.698 101.577 38.7018ZM112.808 38.7018L110.038 38.8723C109.99 38.6355 109.888 38.4225 109.732 38.2331C109.576 38.0389 109.37 37.8851 109.114 37.7714C108.863 37.6531 108.563 37.5939 108.212 37.5939C107.744 37.5939 107.348 37.6933 107.026 37.8922C106.704 38.0863 106.543 38.3467 106.543 38.6734C106.543 38.9338 106.647 39.154 106.856 39.3339C107.064 39.5139 107.422 39.6583 107.928 39.7672L109.903 40.1649C110.963 40.3827 111.754 40.7331 112.275 41.216C112.796 41.699 113.056 42.3335 113.056 43.1194C113.056 43.8344 112.845 44.4618 112.424 45.0015C112.007 45.5413 111.434 45.9627 110.705 46.2657C109.981 46.564 109.145 46.7132 108.198 46.7132C106.754 46.7132 105.603 46.4125 104.746 45.8112C103.894 45.2051 103.395 44.3813 103.248 43.3396L106.224 43.1834C106.314 43.6237 106.531 43.9599 106.877 44.1919C107.223 44.4192 107.665 44.5328 108.205 44.5328C108.736 44.5328 109.162 44.431 109.484 44.2274C109.81 44.0191 109.976 43.7515 109.981 43.4248C109.976 43.1502 109.86 42.9253 109.633 42.7501C109.406 42.5702 109.055 42.4329 108.582 42.3382L106.692 41.9618C105.627 41.7487 104.834 41.3794 104.313 40.8538C103.797 40.3282 103.539 39.6583 103.539 38.8439C103.539 38.1431 103.728 37.5394 104.107 37.0328C104.491 36.5262 105.028 36.1355 105.719 35.8609C106.415 35.5863 107.23 35.449 108.163 35.449C109.54 35.449 110.625 35.7402 111.415 36.3226C112.211 36.905 112.675 37.698 112.808 38.7018ZM119.933 46.7132C118.811 46.7132 117.845 46.4859 117.035 46.0314C116.23 45.5721 115.61 44.9234 115.174 44.0853C114.739 43.2425 114.521 42.2459 114.521 41.0953C114.521 39.9731 114.739 38.9883 115.174 38.1407C115.61 37.2932 116.223 36.6327 117.014 36.1592C117.809 35.6857 118.742 35.449 119.812 35.449C120.532 35.449 121.202 35.565 121.822 35.797C122.447 36.0243 122.992 36.3675 123.456 36.8268C123.924 37.2861 124.289 37.8638 124.549 38.5598C124.81 39.2511 124.94 40.0607 124.94 40.9888V41.8197H115.728V39.9447H122.092C122.092 39.5091 121.997 39.1232 121.808 38.7871C121.618 38.4509 121.356 38.1881 121.02 37.9987C120.688 37.8046 120.302 37.7075 119.862 37.7075C119.403 37.7075 118.995 37.814 118.64 38.0271C118.29 38.2354 118.015 38.5172 117.816 38.8723C117.618 39.2227 117.516 39.6133 117.511 40.0442V41.8268C117.511 42.3666 117.61 42.833 117.809 43.226C118.013 43.619 118.299 43.922 118.669 44.1351C119.038 44.3481 119.476 44.4547 119.983 44.4547C120.319 44.4547 120.627 44.4073 120.906 44.3126C121.185 44.2179 121.424 44.0759 121.623 43.8865C121.822 43.6971 121.974 43.4651 122.078 43.1905L124.876 43.3751C124.734 44.0475 124.443 44.6346 124.002 45.1365C123.567 45.6336 123.003 46.0219 122.312 46.3013C121.626 46.5759 120.833 46.7132 119.933 46.7132ZM132.717 35.591V37.8638H126.147V35.591H132.717ZM127.639 32.9774H130.664V43.1478C130.664 43.4272 130.707 43.645 130.792 43.8013C130.877 43.9528 130.996 44.0593 131.147 44.1209C131.304 44.1824 131.484 44.2132 131.687 44.2132C131.829 44.2132 131.971 44.2014 132.113 44.1777C132.255 44.1493 132.364 44.128 132.44 44.1138L132.916 46.3652C132.764 46.4125 132.551 46.467 132.277 46.5285C132.002 46.5948 131.668 46.6351 131.275 46.6493C130.546 46.6777 129.907 46.5806 129.358 46.3581C128.813 46.1355 128.389 45.7899 128.086 45.3211C127.783 44.8524 127.634 44.2605 127.639 43.5456V32.9774Z" fill="black"/>
<defs>
<linearGradient id="paint0_linear_14_36" x1="5.47294" y1="43.2427" x2="55.4014" y2="10.6278" gradientUnits="userSpaceOnUse">
<stop offset="0.118519" stop-color="#D4151C"/>
<stop offset="1" stop-color="#D35400"/>
</linearGradient>
</defs>
</svg>
